<svg xmlns="http://www.w3.org/2000/svg" xmlns:xlink="http://www.w3.org/1999/xlink" viewBox="0 0 296.72 58.85"><defs><style>.cls-1{fill:none;}.cls-2{fill:#fff;}.cls-3{clip-path:url(#clip-path);}.cls-4{fill:#aa95c7;}.cls-5{fill:#b6a9d3;}.cls-6{fill:#addede;}.cls-7{fill:#81cdbf;}.cls-8{fill:#696094;}.cls-9{fill:#625687;}</style><clipPath id="clip-path"><path class="cls-1" d="M38.2,13.44a9.56,9.56,0,0,0-8.78,5.83,9.55,9.55,0,0,0-8.78-5.83c-6.56,0-10.52,6.26-10.52,11.42,0,8.64,19.3,21.82,19.3,21.82s19.3-13.17,19.3-21.82C48.72,19.7,44.77,13.44,38.2,13.44Z"/></clipPath></defs><title>Asset 36</title><g id="Layer_2" data-name="Layer 2"><g id="Layer_1-2" data-name="Layer 1"><rect class="cls-2" width="58.85" height="58.85" rx="5"/><g class="cls-3"><rect class="cls-4" x="7.73" y="3.9" width="21.69" height="50.37"/><rect class="cls-5" x="18.58" y="3.9" width="10.84" height="50.37"/><rect class="cls-6" x="27.33" y="4.19" width="11.68" height="47.47" transform="translate(14.61 -11.26) rotate(24.56)"/><rect class="cls-7" x="37.76" y="8.79" width="11.71" height="47.64" transform="matrix(0.91, 0.42, -0.42, 0.91, 17.5, -15.18)"/><rect class="cls-8" x="25.88" y="5.05" width="15.69" height="50.37" transform="translate(-8.93 15.01) rotate(-22.24)"/><rect class="cls-9" x="25.91" y="6.55" width="8.28" height="50.37" transform="translate(-9.78 13.74) rotate(-22.24)"/></g><path class="cls-2" d="M93.05,21.65,85.66,31.91a.76.76,0,0,1-.66.37h-.07a.75.75,0,0,1-.69-.37L76.85,21.68v19a.8.8,0,0,1-.79.79.81.81,0,0,1-.83-.79V19.27a.74.74,0,0,1,.33-.62s0,0,.07-.07a.83.83,0,0,1,1.12.2L85,30.17l8.18-11.39a.83.83,0,0,1,1.12-.2,1.94,1.94,0,0,1,.24.27,1.13,1.13,0,0,1,.13.42V40.66a.8.8,0,0,1-.79.79.78.78,0,0,1-.8-.79Z"/><path class="cls-2" d="M115.13,26.07V40.66a.8.8,0,0,1-.79.79.81.81,0,0,1-.8-.79V38.25a7.51,7.51,0,0,1-6.07,3.2,7.89,7.89,0,0,1-7.66-8.08,7.89,7.89,0,0,1,7.66-8.09,7.51,7.51,0,0,1,6.07,3.17V26.07a.79.79,0,0,1,.8-.79A.78.78,0,0,1,115.13,26.07Zm-1.59,7.3a6.09,6.09,0,1,0-12.14,0,6.08,6.08,0,1,0,12.14,0Z"/><path class="cls-2" d="M120.83,19.14a.81.81,0,0,1,1.62,0V34.69L132,25.15a.77.77,0,0,1,1.13,0,.76.76,0,0,1,0,1.12l-6.24,6.24,6.27,7.62a.77.77,0,0,1-.6,1.32.67.67,0,0,1-.62-.29l-6.21-7.5-3.3,3.3v3.7a.81.81,0,0,1-1.62,0Z"/><path class="cls-2" d="M151.39,26.07V40.66a.79.79,0,1,1-1.58,0V38.25a7.54,7.54,0,0,1-6.07,3.2,7.89,7.89,0,0,1-7.66-8.08,7.89,7.89,0,0,1,7.66-8.09,7.54,7.54,0,0,1,6.07,3.17V26.07a.79.79,0,1,1,1.58,0Zm-1.58,7.3a6.09,6.09,0,1,0-12.15,0,6.09,6.09,0,1,0,12.15,0Z"/><path class="cls-2" d="M168.32,31.88a5,5,0,0,0-5-5,5.07,5.07,0,0,0-5,5v8.91a.69.69,0,0,1-.16.37.74.74,0,0,1-.6.29h-.2a.83.83,0,0,1-.52-.43.09.09,0,0,1,0-.09.11.11,0,0,0,0-.07V26.11a.78.78,0,1,1,1.55,0v1.55a6.56,6.56,0,0,1,11.59,4.22v8.78a.8.8,0,0,1-1.59,0Z"/><path class="cls-2" d="M189.41,26.07V40.66a.8.8,0,0,1-.79.79.81.81,0,0,1-.8-.79V38.25a7.51,7.51,0,0,1-6.07,3.2,7.89,7.89,0,0,1-7.66-8.08,7.89,7.89,0,0,1,7.66-8.09,7.51,7.51,0,0,1,6.07,3.17V26.07a.79.79,0,0,1,.8-.79A.78.78,0,0,1,189.41,26.07Zm-1.59,7.3a6.09,6.09,0,1,0-12.14,0,6.08,6.08,0,1,0,12.14,0Z"/><path class="cls-2" d="M217.72,30.69H205.84v10a.81.81,0,0,1-1.62,0V19.14a.81.81,0,0,1,1.62,0v10h11.88v-10a.8.8,0,0,1,.79-.79.81.81,0,0,1,.83.79V40.66a.81.81,0,0,1-.83.79.8.8,0,0,1-.79-.79Z"/><path class="cls-2" d="M224.94,33.4a7.83,7.83,0,0,1,15.65-.59v.13a.74.74,0,0,1-.79.72H226.53a6.36,6.36,0,0,0,6.27,6.21A6.08,6.08,0,0,0,238,36.93a.77.77,0,0,1,1-.26.84.84,0,0,1,.27,1.12,7.72,7.72,0,0,1-6.54,3.66A8,8,0,0,1,224.94,33.4Zm1.69-1.29h12.24a6.23,6.23,0,0,0-6.07-5.24A6.3,6.3,0,0,0,226.63,32.11Z"/><path class="cls-2" d="M258.61,26.07V40.66a.81.81,0,0,1-.8.79.8.8,0,0,1-.79-.79V38.25a7.53,7.53,0,0,1-6.07,3.2,7.89,7.89,0,0,1-7.66-8.08A7.89,7.89,0,0,1,251,25.28,7.52,7.52,0,0,1,257,28.45V26.07a.78.78,0,0,1,.79-.79A.79.79,0,0,1,258.61,26.07ZM257,33.37a6.09,6.09,0,1,0-12.14,0,6.08,6.08,0,1,0,12.14,0Z"/><path class="cls-2" d="M265,19.14a.81.81,0,0,1,1.61,0V40.66a.81.81,0,0,1-1.61,0Z"/><path class="cls-2" d="M277.48,26.07a.86.86,0,0,1-.79.8h-2.08V38.65a1.27,1.27,0,0,0,1.19,1.19.92.92,0,0,1,.82.82.88.88,0,0,1-.82.79,2.74,2.74,0,0,1-2.84-2.8V26.87h-2c-.79,0-.79-.4-.79-.8s0-.79.79-.79h2v-6a.85.85,0,0,1,.79-.79.89.89,0,0,1,.86.79v6h2.08A.86.86,0,0,1,277.48,26.07Z"/><path class="cls-2" d="M295.1,31.65c0-2.84-2.31-4.75-5.15-4.75a4.82,4.82,0,0,0-5.11,4.75v9.11c0,.07,0,.1,0,.13s0,.1-.06.13a.78.78,0,0,1-.5.4.1.1,0,0,1-.06,0H284a.9.9,0,0,1-.62-.26,1.34,1.34,0,0,1-.14-.26.83.83,0,0,1,0-.27V19.14a.8.8,0,0,1,.79-.79.81.81,0,0,1,.83.79v8.52A6.69,6.69,0,0,1,290,25.28a6.45,6.45,0,0,1,6.77,6.37v9a.81.81,0,0,1-1.62,0Z"/></g></g></svg>